<?xml version="1.0" encoding="UTF-8"?>
<svg id="Capa_1" data-name="Capa 1" xmlns="http://www.w3.org/2000/svg" viewBox="0 0 317.98 73.23">
  <defs>
    <style>
      .cls-1 {
        fill: #fff;
      }
    </style>
  </defs>
  <g id="Text">
    <path d="M153.44,66.86c.12.41,1.42,1.47,1.98,1.74,2.38.48,5.41-5.43,5.9-7.32,1.6-6.2.41-19.31,1.11-26.53.44-4.56,1.94-14.31,7.85-14.65,8.33-.48,4.17,15.89,2.62,20.63-2.96,9.01-8.45,13.16-6.57,23.72.62,3.49,2.45,5.79,5.47,2.82,6.5-6.38,3.46-21,4.05-29.57.35-5.04,2.08-19.71,9.97-17.41,5.43,4.1,2.77,13.84,1.11,19.51-2.42,8.21-8.15,13.68-7.23,22.51.51,4.88,2.51,9.07,6.64,3.81,4.53-5.77,1.98-17.61,12.36-18.34,11.45-.81,3.78,14.98-4.11,14.26-.77,6.84,5.59,9.66,10.46,4.84,5.83-5.76,3.19-14.67,3.73-22.05l-2.99-.73h2.98c.34-2.57-.54-6.06.16-8.45.45-1.53,5.27-6.03,4.9-1.84-.28,3.17-.97,6.29-.57,9.54,1.07-.01,5.87-.42,5.97,1.12.11,1.73-4.07-.13-4.74.44l-1.12,1.16c.26,3.93-1.69,21.52,2.65,22.61.63.16,1.18.1,1.72-.28l6.01-8.98c-.48,3.96-4.35,12.16-8.62,12.39-5.82.33-5.46-7.58-6.73-7.53-5.56,9.75-15.58,10.59-19.45-.77-2.48,8.97-12.6,12.7-13.1.75-3.26,3.11-3.8,7.88-9.28,7.43-4.67-.39-2.8-5.33-5.67-7.43-3.51,11.6-13.73,9.29-11.99-2.99-2.06,1.95-2.5,4.79-4.5,7.08-2.54,2.91-5.29,4.79-8.93,2.23l-3.39-6.32c-.7.21-2.46,8.83-9.7,7.47-4.72-.89-4.76-9.95-8.62-11.94-1.06,4.39.28,11.67-5.99,11.95l.37-8.96c-.74,1.76-4.12,1.84-4.69,2.41-.41.41-.43,2.16-1,3.1-1.82,2.96-8.06,4.83-10.77,1.97-2.15-5.82,2.9-5.99,7.11-7.1l-5.61-7.85c-1.13.82-1.03,7.14-3.38,5.59,1.84-2.74,3.54-13.66,6.53-14.46,5.52-1.48,5.31,5.53-.53,5.5,2.3,4.08,7.38,6.34,7.48,11.59,1.04.89,4.39-1.94,4.84-3.01,1.38-3.3.08-15.88.36-20.56.32-5.42,1.24-20.93,9.34-19.79,6.88.97,3.06,16.04,1.7,20.35-2.03,6.4-6.51,11.75-7.26,18.52,3.51-3.27,6.64-10,11.77-11.05,6.62-1.36,4.24,7.42.16,4.71-.51-.34-.55-1.61-.8-1.79-1.5-1.09-7.6,5.54-8.12,7.03s3.72,1.53,4.13,3.32c2.92,4.73,5.57,10.12,10.7,4.01,4.35-5.18,1.83-12.26,8.7-15.96,6.99-3.76,9.76.96,11.14.7.93-.18,2.54-3.24,4.96-2.17.22.16-1.5,2.87-1.5,3.35,0,3.45-.69,13.23,0,15.69ZM119.6,22.58c-.64-.81-2.26-.74-3.1-.14-3.66,2.64-3.56,24.12-3.45,29.1l6.52-16.27c.59-2.91,1.83-10.41.03-12.69ZM166.16,51.54c1.15-.19,1.41-1.39,1.85-2.25,3.24-6.3,6.94-18.02,5.6-25-.51-2.64-2.4-3.4-4.15-1.19-3.2,4.03-2.91,22.68-3.3,28.44ZM179.63,51.54c4.52-3.21,12-28.49,5.53-29.85-3.15.81-3.32,4.64-3.83,7.28-1.44,7.45-.4,15.13-1.7,22.58ZM140.93,50.27c-3.22,2.65-5.02,18.25-.49,19.1,3.82.72,8.76-12.87,8.57-15.97-.24-4.01-5.25-5.47-8.09-3.13ZM194.59,61.25c4.25.17,11.95-8.88,7.48-11.59-5.25-3.19-8.9,7.67-7.48,11.59ZM98.83,64.99c-3.82-1.65-9.61,3.76-4.7,5.12,3.27.9,5.53-1.99,4.7-5.12Z"/>
    <path d="M41.97,48.55l4.48-3.74c.28,3.07-4.04,5.65-4.47,7.86-.47,2.42-.47,14.53,1.47,15.73,2.96,1.83,8.33-7.77,8.1-10.33-.36-4.14-5.1-7.17,2-10.29,1.92-.35,1,3.74,1.32,5.42.35,1.84,4.29,14.76,5.42,14.75,3-4.44,5.64-10.55,4.82-16.01-.32-2.16-3.3-4.8.43-5.67,3.94,0,1.92,8.09,1.33,10.34-.65,2.49-5.32,14.58-7.43,14.99-5.25-.88-4.86-6.94-7.38-10.35-9.07,18.98-17,9.65-14.58-7.48l-10.52-1.14c-3.22,6.48-5.56,17.46-13.97,18.89-16.73,2.84-17.98-21.23.18-22.97,4.1-.39,7.7.79,11.62.4,2.6-6.11,4.57-13.52,8.96-18.7,1.32-1.56,2.9-2.21,4.05-3.43,1.57-1.67,2.15-4.69,5.3-5.92,2.58-1.01-1.13,5.54-1.13,6.34v21.29ZM37.49,50.05v-20.17c-5.39,4.59-7.74,13.09-9.74,19.79,3.26.58,6.5,1.26,9.74.38ZM24.02,51.55c-5.39-.84-13.1-1.97-17.92,1.15-10.17,6.59-2.09,22.78,8.9,15.62,4.98-3.25,7-11.49,9.01-16.77Z"/>
    <path d="M88.35,54.53v1.48c-.72-.19-1.59.76-1.87.76h-13.47l-1.11-1.12,1.11-1.12h15.34Z"/>
    <path class="cls-1" d="M140.93,50.27c2.84-2.33,7.84-.88,8.09,3.13.19,3.1-4.75,16.69-8.57,15.97-4.53-.86-2.74-16.46.49-19.1Z"/>
    <path class="cls-1" d="M179.63,51.54c1.3-7.45.26-15.13,1.7-22.58.51-2.64.68-6.47,3.83-7.28,6.48,1.37-1,26.65-5.53,29.85Z"/>
    <path class="cls-1" d="M166.16,51.54c.4-5.76.1-24.41,3.3-28.44,1.75-2.21,3.64-1.45,4.15,1.19,1.34,6.97-2.37,18.7-5.6,25-.44.86-.7,2.07-1.85,2.25Z"/>
    <path class="cls-1" d="M119.6,22.58c1.8,2.28.56,9.78-.03,12.69l-6.52,16.27c-.1-4.98-.2-26.46,3.45-29.1.83-.6,2.46-.67,3.1.14Z"/>
    <path class="cls-1" d="M194.59,61.25c-1.41-3.93,2.23-14.79,7.48-11.59,4.47,2.72-3.23,11.76-7.48,11.59Z"/>
    <path class="cls-1" d="M98.83,64.99c.83,3.13-1.43,6.02-4.7,5.12-4.91-1.36.88-6.77,4.7-5.12Z"/>
    <path class="cls-1" d="M24.02,51.55c-2.01,5.28-4.03,13.52-9.01,16.77-10.99,7.16-19.07-9.03-8.9-15.62,4.82-3.12,12.53-1.99,17.92-1.15Z"/>
    <path class="cls-1" d="M37.49,50.05c-3.23.88-6.48.19-9.74-.38,2-6.7,4.34-15.2,9.74-19.79v20.17Z"/>
  </g>
  <g id="Icono">
    <path d="M292.55,1.59l-1.87,1.49c3.91,2.46,8.38,3.76,11.96,6.71,6.9,5.67,16.08,22.44,13.34,31.29-.55,1.76-1.52,1.58-1.7,2.15-1.22,4.03-.75,1.95-2.13,4.41-.83,1.47-.65,3.89-1.63,5.49l4.06-4.54,3.42-5.17c-2.05,7.56-4.61,14.28-10.52,19.73-14.94,13.76-34.99,12.78-51.04,1.05-4.46-3.26-11-11.36-12.42-16.74-.53-2.01-1.8-16.21-1.42-17.66.34-1.29,2.06-2.59,2.63-4.15,2.94-8.11,2.67-12.94,10.78-18.38,6.35-4.26,14.67-6.05,22.06-7.16,4.25-.64,10.11,1.88,14.51,1.49ZM306.77,45.66c3.23-11.43-.2-26.38-9.78-33.93-10.41-8.2-26.73-8.26-36.94.33-5.54,4.66-5.16,6.53-8.02,12.19-.5.99-1.93,1.05-2.11,1.77-1.77,7.22-.66,17.56,4.11,23.38,1.6,1.96,3.95,3.64,5.62,5.6-1.62.88-3.63-1.87-4.86-2.61-.82,1.68,4.36,5.75,5.99,6.72,4.43,2.64,12.22,3.6,17.42,4.27,1.48.19,3.28-1.27,3.9.95l-2.99.75h4.48s-.75-2.23-.75-2.23h3.74s-1.49,1.48-1.49,1.48c9.56-.89,19.22-8.31,20.94-17.92l-2.23.74v-2.99s2.98,1.49,2.98,1.49Z"/>
    <path class="cls-1" d="M306.77,45.66l-2.98-1.49v2.99s2.23-.74,2.23-.74c-1.72,9.61-11.38,17.03-20.94,17.92l1.49-1.48h-3.74s.75,2.23.75,2.23h-4.48s2.99-.75,2.99-.75c-.62-2.23-2.41-.76-3.9-.95-5.2-.67-12.99-1.63-17.42-4.27-1.63-.97-6.81-5.04-5.99-6.72,1.23.74,3.24,3.49,4.86,2.61-1.67-1.96-4.02-3.64-5.62-5.6-4.77-5.83-5.88-16.16-4.11-23.38.18-.72,1.61-.78,2.11-1.77,2.86-5.66,2.48-7.53,8.02-12.19,10.21-8.59,26.54-8.53,36.94-.33,9.58,7.55,13.01,22.5,9.78,33.93ZM306.76,40.43l-.6-7.17-1.63-5.52c.46,4.11-1.54,9.84,2.23,12.69Z"/>
    <path d="M306.76,40.43c-3.77-2.85-1.77-8.59-2.23-12.69l1.63,5.52.6,7.17Z"/>
  </g>
</svg>