<?xml version="1.0" encoding="UTF-8"?>
<svg id="Capa_1" data-name="Capa 1" xmlns="http://www.w3.org/2000/svg" viewBox="0 0 75.47 73.23">
  <defs>
    <style>
      .cls-1 {
        fill: #fff;
      }
    </style>
  </defs>
  <g id="Icono">
    <path d="M50.04,1.59l-1.87,1.49c3.91,2.46,8.38,3.76,11.96,6.71,6.9,5.67,16.08,22.44,13.34,31.29-.55,1.76-1.52,1.58-1.7,2.15-1.22,4.03-.75,1.95-2.13,4.41-.83,1.47-.65,3.89-1.63,5.49l4.06-4.54,3.42-5.17c-2.05,7.56-4.61,14.28-10.52,19.73-14.94,13.76-34.99,12.78-51.04,1.05-4.46-3.26-11-11.36-12.42-16.74C.96,45.45-.31,31.24.07,29.8c.34-1.29,2.06-2.59,2.63-4.15,2.94-8.11,2.67-12.94,10.78-18.38C19.82,3.01,28.14,1.21,35.53.1c4.25-.64,10.11,1.88,14.51,1.49ZM64.26,45.66c3.23-11.43-.2-26.38-9.78-33.93-10.41-8.2-26.73-8.26-36.94.33-5.54,4.66-5.16,6.53-8.02,12.19-.5.99-1.93,1.05-2.11,1.77-1.77,7.22-.66,17.56,4.11,23.38,1.6,1.96,3.95,3.64,5.62,5.6-1.62.88-3.63-1.87-4.86-2.61-.82,1.68,4.36,5.75,5.99,6.72,4.43,2.64,12.22,3.6,17.42,4.27,1.48.19,3.28-1.27,3.9.95l-2.99.75h4.48s-.75-2.23-.75-2.23h3.74s-1.49,1.48-1.49,1.48c9.56-.89,19.22-8.31,20.94-17.92l-2.23.74v-2.99s2.98,1.49,2.98,1.49Z"/>
    <path class="cls-1" d="M64.26,45.66l-2.98-1.49v2.99s2.23-.74,2.23-.74c-1.72,9.61-11.38,17.03-20.94,17.92l1.49-1.48h-3.74s.75,2.23.75,2.23h-4.48s2.99-.75,2.99-.75c-.62-2.23-2.41-.76-3.9-.95-5.2-.67-12.99-1.63-17.42-4.27-1.63-.97-6.81-5.04-5.99-6.72,1.23.74,3.24,3.49,4.86,2.61-1.67-1.96-4.02-3.64-5.62-5.6-4.77-5.83-5.88-16.16-4.11-23.38.18-.72,1.61-.78,2.11-1.77,2.86-5.66,2.48-7.53,8.02-12.19,10.21-8.59,26.54-8.53,36.94-.33,9.58,7.55,13.01,22.5,9.78,33.93ZM64.25,40.43l-.6-7.17-1.63-5.52c.46,4.11-1.54,9.84,2.23,12.69Z"/>
    <path d="M64.25,40.43c-3.77-2.85-1.77-8.59-2.23-12.69l1.63,5.52.6,7.17Z"/>
  </g>
</svg>